<?xml version="1.0" encoding="utf-8"?>
<!-- Generator: Adobe Illustrator 24.1.2, SVG Export Plug-In . SVG Version: 6.00 Build 0)  -->
<svg version="1.1" id="Layer_1" xmlns="http://www.w3.org/2000/svg" xmlns:xlink="http://www.w3.org/1999/xlink" x="0px" y="0px"
	 viewBox="0 0 137.3 30" style="enable-background:new 0 0 137.3 30;" xml:space="preserve">
<style type="text/css">
	.st0{fill:#FFFFFF;}
</style>
<g>
	<g>
		<path class="st0" d="M58,11.7c0-0.1,0.1-0.1,0.2-0.2c0.1-0.1,0.2-0.1,0.3-0.1h1.8c0.1,0,0.2,0,0.2,0.1c0.1,0.1,0.1,0.1,0.2,0.2
			l3.7,8.4c0.1,0.1,0.1,0.2,0,0.2c-0.1,0-0.2,0-0.4,0h-1.8c-0.4,0-0.8-0.3-1.1-1l-0.1-0.3h-3c-0.1,0-0.2,0-0.3,0.1
			c-0.1,0.1-0.1,0.1-0.2,0.2l-0.4,0.7c-0.1,0.2-0.1,0.3-0.2,0.3s-0.1,0-0.2,0h-2.2c0,0-0.1,0-0.1,0c0,0-0.1,0-0.1-0.1
			c0,0,0-0.1-0.1-0.1c0,0,0-0.1,0-0.2L58,11.7z M58.7,17h1.4L60,16.8c-0.1-0.2-0.2-0.4-0.3-0.7s-0.2-0.5-0.3-0.8
			c0-0.1-0.1-0.1-0.1-0.1s-0.1,0-0.1,0.1l-0.6,1.5c0,0.1,0,0.1,0,0.2C58.5,17,58.6,17,58.7,17z"/>
		<path class="st0" d="M67.6,14v0.5c0,0.1,0,0.2,0.1,0.2c0.1,0.1,0.1,0.1,0.2,0.1h3.4c0.2,0,0.3,0,0.3,0.1v0.5
			c-0.1,1-0.5,1.6-1.4,1.7h-2.3c-0.1,0-0.2,0-0.2,0.1c-0.1,0.1-0.1,0.1-0.1,0.2v2.7c0,0.1,0,0.2-0.1,0.2c-0.1,0.1-0.1,0.1-0.2,0.1
			h-1.9c-0.1,0-0.2,0-0.2-0.1c-0.1-0.1-0.1-0.1-0.1-0.2v-8.4c0-0.1,0-0.2,0.1-0.2c0.1-0.1,0.1-0.1,0.2-0.1h6.4c0.1,0,0.2,0,0.2,0.1
			c0.1,0.1,0.1,0.1,0.1,0.2v1.7c0,0.1,0,0.2-0.1,0.2c-0.1,0.1-0.1,0.1-0.2,0.1h-3.9c-0.1,0-0.2,0-0.2,0.1
			C67.6,13.8,67.6,13.9,67.6,14z"/>
		<path class="st0" d="M79.9,13.7h-1.8c-0.1,0-0.2,0-0.2,0.1c-0.1,0.1-0.1,0.1-0.1,0.2v6.1c0,0.1,0,0.2-0.1,0.2
			c-0.1,0.1-0.1,0.1-0.2,0.1h-1.9c-0.1,0-0.2,0-0.2-0.1c-0.1-0.1-0.1-0.1-0.1-0.2v-6.2c0-0.1-0.1-0.2-0.3-0.2h-1.3
			c-0.5,0-0.7-0.2-0.8-0.7v-1.4c0-0.1,0.1-0.1,0.2-0.1h6.8c0.2,0,0.3,0,0.2,0.2v1.8c0,0.1,0,0.2-0.1,0.2C80,13.7,80,13.7,79.9,13.7z
			"/>
		<path class="st0" d="M83.6,14v0.5c0,0.1,0,0.2,0.1,0.2c0.1,0.1,0.1,0.1,0.2,0.1h3c0.3,0,0.5,0,0.6,0c0.1,0,0.1,0.1,0.1,0.2
			c-0.1,1.3-0.6,2-1.4,2.1h-2.2c-0.1,0-0.2,0-0.2,0.1c-0.1,0.1-0.1,0.1-0.1,0.2v0.5c0,0.1,0,0.2,0.1,0.2c0.1,0.1,0.1,0.1,0.2,0.1
			h3.9c0.1,0,0.2,0,0.2,0.1c0.1,0.1,0.1,0.1,0.1,0.2v1.7c0,0.1,0,0.2-0.1,0.2c-0.1,0.1-0.1,0.1-0.2,0.1h-6.4c-0.1,0-0.2,0-0.2-0.1
			c-0.1-0.1-0.1-0.1-0.1-0.2v-8.4c0-0.1,0-0.2,0.1-0.2c0.1-0.1,0.1-0.1,0.2-0.1h6.4c0.1,0,0.2,0,0.2,0.1c0.1,0.1,0.1,0.1,0.1,0.2
			v1.7c0,0.1,0,0.2-0.1,0.2c-0.1,0.1-0.1,0.1-0.2,0.1h-3.9c-0.1,0-0.2,0-0.2,0.1C83.7,13.8,83.6,13.9,83.6,14z"/>
		<path class="st0" d="M91.9,20.4h-1.9c-0.1,0-0.2,0-0.2-0.1c-0.1-0.1-0.1-0.1-0.1-0.2v-8.4c0-0.1,0-0.2,0.1-0.2
			c0.1-0.1,0.1-0.1,0.2-0.1H94c0.5,0,0.9,0.1,1.3,0.2s0.8,0.4,1.1,0.7s0.5,0.6,0.7,1c0.2,0.4,0.2,0.8,0.2,1.3c0,0.3,0,0.5-0.1,0.8
			c-0.1,0.3-0.2,0.5-0.3,0.7c-0.1,0.2-0.3,0.4-0.4,0.6s-0.3,0.3-0.5,0.5c-0.1,0-0.1,0.1-0.1,0.2c0,0.1,0,0.1,0,0.2
			c0.3,0.2,0.6,0.6,0.8,1.2s0.5,1,0.8,1.2c0.3,0.2,0.3,0.4,0.2,0.4l-2.1,0c-0.4,0.1-0.7-0.2-1-0.7c-0.3-0.5-0.5-0.9-0.9-1.2
			c-0.3-0.3-0.7-0.5-1-0.6h-0.3c-0.1,0-0.2,0-0.2,0.1c-0.1,0.1-0.1,0.1-0.1,0.2v2.3C92.1,20.4,92,20.4,91.9,20.4z M92.5,15.6h1.3
			c0.1,0,0.2,0,0.3-0.1c0.1,0,0.2-0.1,0.3-0.2c0.1-0.1,0.2-0.2,0.2-0.3s0.1-0.2,0.1-0.4c0-0.1,0-0.2,0-0.3c0-0.1-0.1-0.2-0.2-0.3
			s-0.2-0.2-0.3-0.3c-0.1-0.1-0.3-0.1-0.4-0.1h-1.6v1.6c0,0.1,0,0.2,0.1,0.2C92.4,15.5,92.5,15.6,92.5,15.6z"/>
		<path class="st0" d="M98.8,20.4v-8.7c0-0.1,0-0.2,0.1-0.2c0.1-0.1,0.1-0.1,0.2-0.1h3.4c1.3,0,2.4,0.4,3.2,1.1
			c0.5,0.4,0.8,0.9,1,1.5c0.2,0.6,0.4,1.2,0.4,1.9c0,0.7-0.1,1.3-0.4,1.9c-0.2,0.6-0.6,1.1-1,1.5c-0.4,0.4-0.9,0.6-1.4,0.8
			s-1.1,0.3-1.8,0.3L98.8,20.4z M101.3,18.1h1.2c0.2,0,0.5,0,0.7-0.1s0.5-0.2,0.7-0.3c0.2-0.2,0.4-0.4,0.5-0.7
			c0.1-0.3,0.2-0.7,0.2-1.1c0-0.5-0.1-0.8-0.2-1.1c-0.1-0.3-0.3-0.5-0.5-0.7c-0.2-0.2-0.4-0.3-0.7-0.3c-0.2-0.1-0.5-0.1-0.7-0.1
			h-0.9c-0.1,0-0.2,0-0.2,0.1c-0.1,0.1-0.1,0.1-0.1,0.2v3.8V18.1z"/>
		<path class="st0" d="M111.4,11.7c0-0.1,0.1-0.1,0.2-0.2c0.1-0.1,0.2-0.1,0.3-0.1h1.8c0.1,0,0.2,0,0.2,0.1c0.1,0.1,0.1,0.1,0.2,0.2
			l3.7,8.4c0.1,0.1,0.1,0.2,0,0.2s-0.2,0-0.4,0h-1.8c-0.4,0-0.8-0.3-1.1-1l-0.1-0.3h-3c-0.1,0-0.2,0-0.3,0.1
			c-0.1,0.1-0.1,0.1-0.2,0.2l-0.4,0.7c-0.1,0.2-0.1,0.3-0.2,0.3s-0.1,0-0.2,0H108c0,0-0.1,0-0.1,0c0,0-0.1,0-0.1-0.1
			c0,0,0-0.1-0.1-0.1c0,0,0-0.1,0-0.2L111.4,11.7z M112.2,17h1.4l-0.1-0.3c-0.1-0.2-0.2-0.4-0.3-0.7c-0.1-0.3-0.2-0.5-0.3-0.8
			c0-0.1-0.1-0.1-0.1-0.1s-0.1,0-0.1,0.1l-0.6,1.5c0,0.1,0,0.1,0,0.2C112,17,112.1,17,112.2,17z"/>
		<path class="st0" d="M120.8,20.4h-1.9c-0.1,0-0.2,0-0.2-0.1c-0.1-0.1-0.1-0.1-0.1-0.2v-8.4c0-0.1,0-0.2,0.1-0.2
			c0.1-0.1,0.1-0.1,0.2-0.1h3.9c0.5,0,0.9,0.1,1.3,0.2c0.4,0.2,0.8,0.4,1.1,0.7s0.5,0.6,0.7,1c0.2,0.4,0.2,0.8,0.2,1.3
			c0,0.3,0,0.5-0.1,0.8c-0.1,0.3-0.2,0.5-0.3,0.7s-0.3,0.4-0.4,0.6c-0.2,0.2-0.3,0.3-0.5,0.5c-0.1,0-0.1,0.1-0.1,0.2
			c0,0.1,0,0.1,0,0.2c0.3,0.2,0.6,0.6,0.8,1.2c0.3,0.6,0.5,1,0.8,1.2s0.3,0.4,0.2,0.4l-2.1,0c-0.4,0.1-0.7-0.2-1-0.7
			s-0.5-0.9-0.9-1.2c-0.3-0.3-0.7-0.5-1-0.6h-0.3c-0.1,0-0.2,0-0.2,0.1c-0.1,0.1-0.1,0.1-0.1,0.2v2.3
			C121,20.4,120.9,20.4,120.8,20.4z M121.4,15.6h1.3c0.1,0,0.2,0,0.3-0.1c0.1,0,0.2-0.1,0.3-0.2c0.1-0.1,0.2-0.2,0.2-0.3
			s0.1-0.2,0.1-0.4c0-0.1,0-0.2,0-0.3c0-0.1-0.1-0.2-0.2-0.3c-0.1-0.1-0.2-0.2-0.3-0.3c-0.1-0.1-0.3-0.1-0.4-0.1h-1.6v1.6
			c0,0.1,0,0.2,0.1,0.2C121.2,15.5,121.3,15.6,121.4,15.6z"/>
		<path class="st0" d="M132.3,19.6l-1.9-2c-0.1-0.1-0.1-0.1-0.1-0.1c0,0-0.1,0.1-0.1,0.1v2.7c0,0.1-0.1,0.1-0.3,0.1H128
			c-0.1,0-0.2,0-0.2-0.1c-0.1-0.1-0.1-0.1-0.1-0.2v-8.4c0-0.1,0-0.2,0.1-0.2c0.1-0.1,0.1-0.1,0.2-0.1h1.9c0.1,0,0.2,0,0.2,0.1
			c0.1,0.1,0.1,0.1,0.1,0.2v2.8c0,0.1,0,0.1,0.1,0.1c0,0,0.1,0,0.1-0.1l2.3-2.9c0-0.1,0.1-0.1,0.2-0.2c0.1,0,0.2-0.1,0.3-0.1h2.4
			c0.1,0,0.1,0,0.2,0.1c0,0.1,0,0.1,0,0.2l-3.3,4c0,0.1-0.1,0.1-0.1,0.2c0,0.1,0,0.2,0.1,0.2c0.3,0.3,0.7,0.8,1.2,1.4
			c0.5,0.6,1.3,1.4,2.4,2.4c0.3,0.3,0.3,0.4,0,0.4h-2C133.4,20.4,132.8,20.1,132.3,19.6z"/>
	</g>
	<g>
		<path class="st0" d="M41.9,11.2c-0.6-1.4-1.4-2.5-2.5-3.5c-2-1.8-4.6-2.7-7.8-2.7h-8.3C23.2,5,23,5,22.8,5.2
			c-0.1,0.1-0.2,0.3-0.2,0.5v11.1l4.3,9.8l4.7,0c1.6,0,3-0.2,4.3-0.7c1.3-0.5,2.5-1.1,3.5-2c1.1-1,1.9-2.2,2.5-3.5
			c0.6-1.4,0.9-2.9,0.9-4.6C42.8,14.1,42.5,12.5,41.9,11.2z M36.2,18.5c-0.3,0.7-0.7,1.2-1.2,1.6c-0.5,0.4-1,0.6-1.6,0.8
			c-0.6,0.1-1.2,0.2-1.8,0.2h-3v-0.7v-9.2c0-0.2,0.1-0.4,0.2-0.5c0.1-0.1,0.3-0.2,0.5-0.2h2.3c0.6,0,1.1,0.1,1.7,0.2
			c0.6,0.1,1.1,0.4,1.6,0.8c0.5,0.4,0.9,0.9,1.2,1.6c0.3,0.7,0.5,1.6,0.5,2.7C36.7,16.9,36.6,17.8,36.2,18.5z"/>
		<g>
			<path class="st0" d="M10.3,5.6c0.1-0.2,0.2-0.3,0.4-0.5C10.9,5,11.1,5,11.3,5h4.2c0.2,0,0.4,0.1,0.6,0.2s0.3,0.3,0.4,0.5l9,20.3
				c0.3,0.3,0.4,0.5,0.1,0.5c-0.3,0-0.6,0-0.9,0h-4.4c-1,0-1.9-0.8-2.6-2.4l-0.3-0.7h-7.1c-0.2,0-0.4,0.1-0.6,0.2
				c-0.2,0.1-0.3,0.3-0.4,0.5l-0.8,1.8c-0.2,0.4-0.3,0.7-0.5,0.7s-0.3,0-0.5,0H2.1c-0.1,0-0.2,0-0.3-0.1c-0.1,0-0.2-0.1-0.3-0.2
				c-0.1-0.1-0.1-0.2-0.1-0.3c0-0.1,0-0.3,0.1-0.4L10.3,5.6z M12.1,18.4h3.4l-0.3-0.6c-0.2-0.5-0.5-1.1-0.7-1.7
				c-0.3-0.7-0.5-1.3-0.8-1.8c-0.1-0.2-0.2-0.3-0.3-0.3c-0.1,0-0.2,0.1-0.3,0.3l-1.5,3.6c-0.1,0.2-0.1,0.3,0,0.4
				C11.7,18.4,11.8,18.4,12.1,18.4z"/>
		</g>
	</g>
</g>
</svg>
